PathFileType	4	(X/Y/Z)	2.trc
DataRate	CameraRate	NumFrames	NumMarkers	Units	OrigDataRate	OrigDataStartFrame	OrigNumFrames
147	147	6	50	mm	147	936	1496
Frame#	Time	L_IAS			R_IAS			L_TH1			L_TH2			L_TH3			L_TH4			L_FLE			L_FME			L_SK1			L_SK2			L_SK3			L_SK4			L_FAL			L_TAM			L_FCC			L_FM1			L_FM2			L_FM5			R_TH1			R_TH2			R_TH3			R_TH4			R_FLE			R_FME			R_SK2			R_SK1			R_SK3			R_SK4			R_FAL			R_TAM			R_FCC			R_FM1			R_FM2			R_FM5			R_IPS			L_IPS			CV7			L_SIA			R_SIA			TV10			L_SAE			R_SAE			L_ARM			R_ARM			L_HLE			R_HLE			L_RSP			L_USP			R_RSP			R_USP		
		X1	Y1	Z1	X2	Y2	Z2	X3	Y3	Z3	X4	Y4	Z4	X5	Y5	Z5	X6	Y6	Z6	X7	Y7	Z7	X8	Y8	Z8	X9	Y9	Z9	X10	Y10	Z10	X11	Y11	Z11	X12	Y12	Z12	X13	Y13	Z13	X14	Y14	Z14	X15	Y15	Z15	X16	Y16	Z16	X17	Y17	Z17	X18	Y18	Z18	X19	Y19	Z19	X20	Y20	Z20	X21	Y21	Z21	X22	Y22	Z22	X23	Y23	Z23	X24	Y24	Z24	X25	Y25	Z25	X26	Y26	Z26	X27	Y27	Z27	X28	Y28	Z28	X29	Y29	Z29	X30	Y30	Z30	X31	Y31	Z31	X32	Y32	Z32	X33	Y33	Z33	X34	Y34	Z34	X35	Y35	Z35	X36	Y36	Z36	X37	Y37	Z37	X38	Y38	Z38	X39	Y39	Z39	X40	Y40	Z40	X41	Y41	Z41	X42	Y42	Z42	X43	Y43	Z43	X44	Y44	Z44	X45	Y45	Z45	X46	Y46	Z46	X47	Y47	Z47	X48	Y48	Z48	X49	Y49	Z49	X50	Y50	Z50

936	6.360544	1005.662475	595.982402	-674.773404	880.335386	577.670747	-431.623889	1150.080455	511.852292	-693.243886	1137.158882	491.342252	-729.497584	1198.394069	452.406978	-723.528915	1211.469337	473.112858	-687.964483	1247.174994	370.293049	-715.170079	1225.158642	290.707452	-619.201720	1228.043771	302.145714	-772.616715	1198.947964	333.319307	-778.733390	1161.731839	290.140119	-822.753021	1190.461228	257.643693	-816.122587	1020.506446	137.004932	-910.933350	1025.279844	92.784923	-831.241904	921.596039	98.247451	-905.233210	1121.148947	31.930759	-872.005359	1142.491194	66.517921	-892.042828	1113.477820	97.093493	-961.203287	1045.040615	410.090335	-352.779636	1078.177317	437.437232	-362.332778	1126.110380	381.036294	-369.830736	1102.695262	342.511453	-362.856396	1092.422448	315.873096	-387.032037	1132.099808	338.620849	-501.138567	1095.445020	228.700795	-394.183242	1056.836461	253.139315	-387.999683	1058.385188	169.324168	-415.475712	1019.306490	190.813033	-408.979771	924.854040	14.566651	-513.760280	961.074127	38.275308	-595.569645	854.622433	-16.928558	-582.211600	1061.648586	-15.443696	-564.516186	1060.707803	-3.204565	-510.532672	1020.986658	-19.667044	-467.010747	779.904508	667.692638	-565.392021	837.170040	672.886140	-643.581051	1088.195179	1031.177404	-463.350518	1093.007221	891.320088	-599.811703	944.555754	923.579398	-458.919547	949.329548	848.313033	-530.573698	1235.821144	973.957909	-500.084488	1038.669586	1030.733907	-309.807474	1366.617462	918.918639	-578.830425	903.526870	1019.111301	-214.441417	1507.672945	855.582770	-579.078671	793.234455	997.031187	-112.174490	1712.409605	935.245635	-477.708789	1730.392511	887.603148	-513.080254	748.564248	970.233508	130.542804	710.284704	1023.580536	110.706415
937	6.367347	1006.164137	595.311173	-674.685565	881.067646	576.869118	-431.428805	1150.662674	511.281237	-693.081024	1137.747746	490.746264	-729.322419	1199.017201	451.862824	-723.360740	1212.107155	472.617059	-687.822405	1247.855696	369.800869	-715.034102	1225.847469	290.349876	-618.966747	1228.518692	301.643192	-772.394081	1199.497808	332.878599	-778.474201	1162.156537	289.784185	-822.427255	1190.712547	257.190735	-815.819159	1020.461846	136.833588	-910.301481	1025.298782	92.663614	-830.585694	921.489042	98.277842	-904.392331	1120.970435	31.609725	-871.450142	1142.346307	66.143443	-891.564855	1113.260434	96.694100	-960.706658	1046.122473	409.664850	-352.734040	1079.208500	437.040883	-362.343427	1127.196221	380.684180	-369.827003	1103.883887	342.159408	-362.776604	1093.669316	315.565002	-386.895287	1133.222589	338.265477	-501.162309	1096.353252	228.348959	-394.194347	1057.812022	252.871508	-387.932781	1059.116810	169.070494	-415.464318	1020.097960	190.647356	-408.893765	924.967264	14.731488	-513.664371	961.178005	38.404538	-595.502856	854.616640	-16.617651	-582.044220	1061.662641	-15.452669	-564.522226	1060.744042	-3.252369	-510.524902	1021.024829	-19.673044	-466.993505	780.412664	666.758342	-565.124596	837.589509	672.004174	-643.367337	1088.404997	1030.612822	-463.412482	1093.229106	890.710748	-599.819843	944.832966	922.858679	-458.841182	949.641939	847.579649	-530.455973	1236.058132	973.436375	-500.202822	1038.911038	1030.191755	-309.872798	1366.853422	918.356465	-578.999419	903.835921	1018.527063	-214.411662	1507.928717	855.042324	-579.274135	793.659270	996.430988	-112.043564	1712.555119	935.022271	-477.886873	1730.601564	887.360424	-513.180255	749.171181	969.870837	130.728403	710.829539	1023.159447	110.851694
938	6.374150	1006.668085	594.622627	-674.597754	881.797898	576.044109	-431.235558	1151.247743	510.689382	-692.913222	1138.339471	490.132376	-729.144262	1199.643017	451.300294	-723.191937	1212.744799	472.097479	-687.676154	1248.536117	369.287677	-714.907443	1226.531035	289.966839	-618.746021	1228.996537	301.123246	-772.183899	1200.050798	332.421018	-778.227303	1162.586684	289.415642	-822.116732	1190.968443	256.727988	-815.533097	1020.425529	136.665582	-909.703023	1025.318552	92.535540	-829.964281	921.387142	98.308927	-903.591129	1120.793290	31.285090	-870.930844	1142.205533	65.768808	-891.115807	1113.049258	96.300032	-960.239207	1047.190951	409.247166	-352.661438	1080.227002	436.653244	-362.326683	1128.271187	380.343081	-369.785931	1105.067474	341.819280	-362.658229	1094.918469	315.270539	-386.717350	1134.349177	337.913441	-501.147606	1097.254478	228.008159	-394.171788	1058.781739	252.615698	-387.835355	1059.840941	168.829014	-415.421468	1020.883593	190.495549	-408.780486	925.084027	14.909652	-513.558131	961.291473	38.554267	-595.420175	854.613892	-16.276921	-581.868612	1061.676421	-15.456476	-564.522051	1060.784387	-3.301437	-510.509668	1021.067355	-19.681812	-466.972554	780.926308	665.804013	-564.860076	838.015218	671.106679	-643.155125	1088.614525	1030.028546	-463.472554	1093.451567	890.085627	-599.827746	945.111711	922.117158	-458.759957	949.956270	846.825903	-530.335289	1236.297389	972.900619	-500.323080	1039.154199	1029.628278	-309.937519	1367.090366	917.779707	-579.169026	904.146110	1017.917454	-214.380762	1508.186181	854.488270	-579.467252	794.080736	995.804615	-111.913846	1712.698232	934.770814	-478.041716	1730.810857	887.095029	-513.265209	749.769805	969.472372	130.911893	711.366647	1022.702595	110.994473
939	6.380952	1007.175547	593.914279	-674.509413	882.525432	575.194251	-431.043993	1151.836997	510.074870	-692.742818	1138.935093	489.498992	-728.965461	1200.272778	450.718014	-723.025733	1213.383477	471.552088	-687.528672	1249.217159	368.752090	-714.793882	1227.210304	289.555856	-618.544175	1229.477321	300.586231	-771.990768	1200.606994	331.947085	-777.996329	1163.020791	289.035660	-821.825273	1191.230501	256.257591	-815.269722	1020.394642	136.505178	-909.142647	1025.336093	92.403513	-829.383600	921.286714	98.345929	-902.833925	1120.613801	30.959572	-870.456367	1142.065501	65.397512	-890.703601	1112.840016	95.916674	-959.807886	1048.243195	408.836758	-352.557441	1081.229870	436.273716	-362.277437	1129.332834	380.012643	-369.701547	1106.242297	341.489989	-362.496317	1096.165524	314.987621	-386.494345	1135.478252	337.564278	-501.088739	1098.146839	227.678221	-394.111050	1059.743628	252.371768	-387.703312	1060.556221	168.599472	-415.343530	1021.661576	190.357691	-408.637027	925.205173	15.101833	-513.441287	961.416472	38.725910	-595.320802	854.615222	-15.904616	-581.685633	1061.690480	-15.454534	-564.515007	1060.829559	-3.351619	-510.486272	1021.114377	-19.693705	-466.947748	781.445572	664.827559	-564.599611	838.448208	670.191582	-642.945263	1088.823109	1029.422903	-463.530915	1093.674705	889.442904	-599.835241	945.391553	921.352921	-458.676501	950.272561	846.050011	-530.212322	1236.537943	972.349458	-500.445049	1039.398200	1029.041920	-310.001899	1367.328044	917.187845	-579.339000	904.456781	1017.281088	-214.349104	1508.445409	853.921181	-579.657336	794.498172	995.151066	-111.785305	1712.838947	934.492323	-478.173260	1731.020197	886.808072	-513.335249	750.361308	969.037998	131.093661	711.896844	1022.209639	111.135241
940	6.387755	1007.687752	593.183465	-674.420213	883.249615	574.318041	-430.853938	1152.431735	509.435919	-692.573022	1139.535577	488.844548	-728.789185	1200.907659	450.114639	-722.866221	1214.024507	470.979104	-687.383937	1249.899781	368.192943	-714.697784	1227.886944	289.114649	-618.366306	1229.961002	300.032683	-771.819787	1201.166275	331.457411	-777.785335	1163.457097	288.645323	-821.556958	1191.500003	255.781548	-815.034617	1020.365993	136.355969	-908.624327	1025.348620	92.269967	-828.848935	921.184059	98.393335	-902.124018	1120.428435	30.635676	-870.035221	1141.922786	65.032784	-890.336015	1112.628137	95.548969	-959.419390	1049.276714	408.432698	-352.418029	1082.214482	435.901309	-362.190997	1130.379087	379.692110	-369.568489	1107.404891	341.170023	-362.286548	1097.406189	314.713681	-386.223089	1136.608635	337.217294	-500.980654	1099.028754	227.358569	-394.008201	1060.695994	252.139197	-387.533044	1061.261582	168.381236	-415.227457	1022.430369	190.233405	-408.460896	925.331470	15.308554	-513.313706	961.554889	38.920473	-595.204223	854.621661	-15.499449	-581.496293	1061.705386	-15.446327	-564.500541	1060.880238	-3.402709	-510.454131	1021.165867	-19.709027	-466.919028	781.970435	663.826652	-564.344398	838.889328	669.256479	-642.738702	1089.030032	1028.793966	-463.587715	1093.898630	888.780444	-599.842124	945.671986	920.563813	-458.591493	950.590783	845.249993	-530.087866	1236.778823	971.781320	-500.568360	1039.642062	1028.430822	-310.066074	1367.566223	916.579973	-579.508861	904.767179	1016.616347	-214.317027	1508.706503	853.341232	-579.843371	794.911003	994.469039	-111.657831	1712.977107	934.187960	-478.281232	1731.229321	886.500614	-513.390022	750.946978	968.567529	131.274132	712.421008	1021.680171	111.274565
941	6.394558	1008.205877	592.427466	-674.330067	883.969893	573.413995	-430.665233	1153.033145	508.770880	-692.407737	1140.141767	488.167576	-728.619255	1201.548691	449.488905	-722.718168	1214.669245	470.377047	-687.246753	1250.584943	367.609321	-714.623889	1228.563207	288.641180	-618.217776	1230.447442	299.463307	-771.676354	1201.728347	330.952693	-777.598641	1163.893564	288.245595	-821.315968	1191.777824	255.301676	-814.833414	1020.336096	136.220834	-908.151235	1025.353636	92.136942	-828.364800	921.075486	98.454864	-901.463658	1120.233873	30.315650	-869.675275	1141.773954	64.677502	-890.020457	1112.408878	95.201312	-959.079962	1050.289464	408.033700	-352.239739	1083.178640	435.534682	-362.063318	1131.408305	379.380351	-369.382266	1108.552212	340.857520	-362.025429	1098.636465	314.445807	-385.901249	1137.739318	336.871597	-500.819199	1099.898980	227.048251	-393.860074	1061.637492	251.917080	-387.321594	1061.956286	168.173321	-415.070938	1023.188758	190.121870	-408.250139	925.463579	15.530136	-513.175403	961.708461	39.138492	-595.070234	854.634197	-15.060668	-581.301724	1061.721698	-15.431431	-564.478226	1060.937037	-3.454459	-510.412802	1021.221608	-19.728012	-466.886435	782.500707	662.798823	-564.095649	839.339182	668.298733	-642.536459	1089.234536	1028.139632	-463.643079	1094.123450	888.095876	-599.848177	945.952462	919.747529	-458.505647	950.910849	844.423750	-529.962815	1237.019087	971.194294	-500.692516	1039.884741	1027.792884	-310.130058	1367.804695	915.954829	-579.677906	905.076482	1015.921436	-214.284822	1508.969595	852.748184	-580.024024	795.318758	993.756978	-111.531267	1713.112397	933.858927	-478.365113	1731.437894	886.173608	-513.428639	751.528146	968.060669	131.453738	712.940049	1021.113688	111.413057
